HIERARCHY
ROOT Hips
{
	OFFSET 0.000000 0.000000 0.000000
	CHANNELS 6 Xposition Yposition Zposition Zrotation Yrotation Xrotation 
	JOINT LeftUpLeg_virtual
	{
		OFFSET 0.000000 0.000000 0.000000
		CHANNELS 3 Zrotation Yrotation Xrotation
		JOINT LeftUpLeg
		{
			OFFSET 8.479694 -4.795517 -0.379053
			CHANNELS 3 Zrotation Yrotation Xrotation
			JOINT LeftLeg
			{
				OFFSET 0.485052 -32.551468 0.112863
				CHANNELS 3 Zrotation Yrotation Xrotation
				JOINT LeftFoot
				{
					OFFSET 0.438033 -32.635670 -3.012641
					CHANNELS 3 Zrotation Yrotation Xrotation
					JOINT LeftToeBase
					{
						OFFSET 0.970169 -13.225353 11.864223
						CHANNELS 3 Zrotation Yrotation Xrotation
						End Site
						{
							OFFSET 0.000000 0.000000 0.000000
						}
					}
				}
			}
		}
	}
	JOINT RightUpLeg_virtual
	{
		OFFSET 0.000000 0.000000 0.000000
		CHANNELS 3 Zrotation Yrotation Xrotation
		JOINT RightUpLeg
		{
			OFFSET -8.479694 -4.795517 -0.379053
			CHANNELS 3 Zrotation Yrotation Xrotation
			JOINT RightLeg
			{
				OFFSET -0.484100 -32.551483 0.112903
				CHANNELS 3 Zrotation Yrotation Xrotation
				JOINT RightFoot
				{
					OFFSET -0.438985 -32.635651 -3.012681
					CHANNELS 3 Zrotation Yrotation Xrotation
					JOINT RightToeBase
					{
						OFFSET -0.970169 -13.225354 11.864223
						CHANNELS 3 Zrotation Yrotation Xrotation
						End Site
						{
							OFFSET 0.000000 0.000000 0.000000
						}
					}
				}
			}
		}
	}
	JOINT Spine_virtual
	{
		OFFSET 0.000000 0.000000 0.000000
		CHANNELS 3 Zrotation Yrotation Xrotation
		JOINT Spine
		{
			OFFSET 0.000000 7.722015 1.166203
			CHANNELS 3 Zrotation Yrotation Xrotation
			JOINT Spine1
			{
				OFFSET 0.000000 12.024086 0.248766
				CHANNELS 3 Zrotation Yrotation Xrotation
				JOINT Spine2
				{
					OFFSET -0.000000 11.503036 -0.491240
					CHANNELS 3 Zrotation Yrotation Xrotation
					JOINT Neck_virtual
					{
						OFFSET 0.000000 0.000000 0.000000
						CHANNELS 3 Zrotation Yrotation Xrotation
						JOINT Neck
						{
							OFFSET 0.000000 18.430687 -3.123054
							CHANNELS 3 Zrotation Yrotation Xrotation
							JOINT Head
							{
								OFFSET -0.000000 9.051071 1.034021
								CHANNELS 3 Zrotation Yrotation Xrotation
								End Site
								{
									OFFSET 0.000000 0.000000 0.000000
								}
							}
						}
					}
					JOINT LeftShoulder_virtual
					{
						OFFSET 0.000000 0.000000 0.000000
						CHANNELS 3 Zrotation Yrotation Xrotation
						JOINT LeftShoulder
						{
							OFFSET 6.197824 13.665230 -4.064723
							CHANNELS 3 Zrotation Yrotation Xrotation
							JOINT LeftArm
							{
								OFFSET 7.778132 -0.187073 -1.709282
								CHANNELS 3 Zrotation Yrotation Xrotation
								JOINT LeftForeArm
								{
									OFFSET 21.954697 0.000000 -2.041093
									CHANNELS 3 Zrotation Yrotation Xrotation
									JOINT LeftHand
									{
										OFFSET 22.992908 0.000000 -0.870901
										CHANNELS 3 Zrotation Yrotation Xrotation
										End Site
										{
											OFFSET 0.000000 0.000000 0.000000
										}
									}
								}
							}
						}
					}
					JOINT RightShoulder_virtual
					{
						OFFSET 0.000000 0.000000 0.000000
						CHANNELS 3 Zrotation Yrotation Xrotation
						JOINT RightShoulder
						{
							OFFSET -6.197824 13.665230 -4.064723
							CHANNELS 3 Zrotation Yrotation Xrotation
							JOINT RightArm
							{
								OFFSET -7.778132 -0.187073 -1.709282
								CHANNELS 3 Zrotation Yrotation Xrotation
								JOINT RightForeArm
								{
									OFFSET -21.954697 0.000000 -2.041093
									CHANNELS 3 Zrotation Yrotation Xrotation
									JOINT RightHand
									{
										OFFSET -22.992908 0.000000 -0.870901
										CHANNELS 3 Zrotation Yrotation Xrotation
										End Site
										{
											OFFSET 0.000000 0.000000 0.000000
										}
									}
								}
							}
						}
					}
				}
			}
		}
	}
}
MOTION
Frames: 5
Frame Time: 0.033333
-8.938173 80.724701 25.055471 -179.996590 2.946722 -179.898331 -4.906712 -0.975542 11.674753 -3.797950 2.625204 -25.403075 10.260333 4.030306 31.226696 2.257407 -10.041178 -14.317181 0.000000 0.000000 0.000000 -1.819662 -0.870709 11.800353 -0.958367 0.155773 -20.712076 -1.358849 3.154316 28.809472 8.419403 3.383891 -13.244007 0.000000 0.000000 0.000000 2.585352 1.736977 -0.472679 -4.961286 1.206887 1.174807 0.531799 -3.054197 3.123142 0.026980 0.027428 0.001540 0.523243 -2.342509 3.995942 1.134096 1.438613 -4.962934 0.000000 0.000000 0.000000 1.959333 -1.514712 0.825422 -2.594200 5.052407 -5.763031 4.015598 -11.947148 -53.798678 -0.159433 -34.144293 -3.534965 0.000000 0.000000 0.000000 -1.925003 -0.314113 0.322074 18.949173 -7.864838 -11.144343 -0.612203 2.823745 -66.942629 -1.060380 17.503429 5.148256 0.000000 0.000000 0.000000 
-8.950392 80.720680 25.039637 179.989514 3.033237 -179.866502 -4.816544 -1.043650 11.778786 -3.772149 2.471178 -25.285290 10.337044 3.751367 31.400910 2.194836 -10.149212 -14.634549 0.000000 0.000000 0.000000 -1.754194 -0.770628 11.770354 -0.920462 -0.068786 -20.723598 -1.358148 3.010386 28.905945 8.396372 3.358315 -13.218096 0.000000 0.000000 0.000000 2.559528 1.871240 -0.481612 -4.969252 1.330124 1.153455 0.507277 -3.110570 3.123760 0.029635 -0.044086 0.053994 0.503591 -2.355586 3.979432 1.120106 1.435148 -4.928967 0.000000 0.000000 0.000000 1.917280 -1.499231 0.836043 -2.609712 5.128722 -5.788889 4.040785 -11.965406 -53.868708 -0.116976 -34.118339 -3.623475 0.000000 0.000000 0.000000 -1.943046 -0.333059 0.264932 19.000664 -7.928506 -11.160753 -0.660568 2.754087 -66.939242 -1.086397 17.649960 5.096687 0.000000 0.000000 0.000000 
-8.966365 80.716011 25.043699 -179.994869 2.998633 -179.875491 -4.848549 -1.117018 11.770120 -3.760129 2.494614 -25.316122 10.342584 3.765881 31.450784 2.187739 -10.151506 -14.644583 0.000000 0.000000 0.000000 -1.762676 -0.800288 11.764857 -0.950217 -0.102115 -20.753506 -1.359793 3.038888 28.927668 8.385553 3.356154 -13.224224 0.000000 0.000000 0.000000 2.554146 1.735943 -0.498890 -4.958335 1.224050 1.099506 0.467525 -3.012009 3.117160 -0.011969 0.047981 0.016828 0.489147 -2.304782 4.024281 1.079651 1.434489 -4.818576 0.000000 0.000000 0.000000 1.918352 -1.480570 0.866453 -2.653053 5.187643 -5.803994 4.049884 -11.896801 -53.922602 -0.136290 -34.029519 -3.608865 0.000000 0.000000 0.000000 -1.965762 -0.285002 0.285439 18.977327 -7.934170 -11.241562 -0.671300 2.502187 -66.942780 -0.953206 17.803931 5.166726 0.000000 0.000000 0.000000 
-8.985333 80.709694 25.062447 179.985921 3.008363 -179.841463 -4.821415 -1.119054 11.752364 -3.819044 2.533565 -25.366315 10.316099 3.736046 31.472057 2.191126 -10.130503 -14.627936 0.000000 0.000000 0.000000 -1.763938 -0.815455 11.744572 -0.978416 -0.081441 -20.802828 -1.367353 3.027424 28.972894 8.398600 3.384461 -13.218325 0.000000 0.000000 0.000000 2.553198 1.724584 -0.531863 -4.942406 1.205639 1.022224 0.417817 -3.004410 3.148107 0.023336 0.043020 0.022680 0.410389 -2.289556 4.105639 1.057496 1.406267 -4.752354 0.000000 0.000000 0.000000 1.847052 -1.447342 0.926329 -2.700970 5.312079 -5.804698 4.061210 -11.810421 -53.958088 0.002601 -33.952348 -3.765281 0.000000 0.000000 0.000000 -2.023222 -0.256100 0.390384 19.103291 -8.008647 -11.323646 -0.837932 2.416968 -67.112407 -0.803409 17.862943 5.184475 0.000000 0.000000 0.000000 
-9.002705 80.706573 25.081369 179.994295 2.969047 -179.874248 -4.813062 -1.157382 11.772454 -3.830113 2.569351 -25.380973 10.313454 3.750012 31.488227 2.167231 -10.137923 -14.609686 0.000000 0.000000 0.000000 -1.737719 -0.861531 11.770149 -1.002747 -0.116801 -20.805636 -1.356188 3.092568 29.002243 8.400474 3.418255 -13.223825 0.000000 0.000000 0.000000 2.582905 1.725926 -0.504419 -4.902031 1.199013 0.926573 0.356783 -2.995802 3.194967 0.023623 0.027435 0.032436 0.324988 -2.307108 4.173645 1.020894 1.395030 -4.547907 0.000000 0.000000 0.000000 1.803053 -1.438483 0.959526 -2.820411 5.345517 -5.902259 4.154387 -11.695905 -54.127036 -0.111033 -33.820085 -3.705558 0.000000 0.000000 0.000000 -2.084099 -0.234689 0.427657 19.236746 -8.114534 -11.427589 -1.020811 2.257637 -67.071720 -0.650242 17.932766 5.176131 0.000000 0.000000 0.000000 
